<svg width="9" height="16" viewBox="0 0 9 16" fill="none" xmlns="http://www.w3.org/2000/svg">
<path d="M0.410445 0.810897C0.285908 0.935179 0.187105 1.0828 0.119691 1.24532C0.0522782 1.40783 0.0175781 1.58205 0.0175781 1.75799C0.0175781 1.93393 0.0522782 2.10814 0.119691 2.27066C0.187105 2.43317 0.285908 2.58079 0.410445 2.70508L5.6228 7.91743L0.410445 13.1298C0.159261 13.381 0.018147 13.7216 0.018147 14.0769C0.018147 14.4321 0.159261 14.7728 0.410445 15.024C0.661629 15.2751 1.00231 15.4163 1.35753 15.4163C1.71276 15.4163 2.05344 15.2751 2.30462 15.024L8.47078 8.8578C8.59532 8.73352 8.69412 8.5859 8.76154 8.42338C8.82895 8.26087 8.86365 8.08665 8.86365 7.91071C8.86365 7.73477 8.82895 7.56056 8.76154 7.39804C8.69412 7.23553 8.59532 7.0879 8.47078 6.96362L2.30462 0.797463C1.79414 0.286975 0.934367 0.286975 0.410445 0.810897Z" fill="#292929"/>
</svg>
