<svg width="9" height="16" viewBox="0 0 9 16" fill="none" xmlns="http://www.w3.org/2000/svg">
<path d="M8.4532 15.0216C8.57774 14.8973 8.67654 14.7497 8.74396 14.5872C8.81137 14.4247 8.84607 14.2505 8.84607 14.0745C8.84607 13.8986 8.81137 13.7244 8.74396 13.5619C8.67654 13.3993 8.57774 13.2517 8.4532 13.1274L3.24085 7.91509L8.4532 2.70274C8.70439 2.45155 8.8455 2.11088 8.8455 1.75565C8.8455 1.40042 8.70439 1.05974 8.4532 0.808555C8.20202 0.557371 7.86134 0.41626 7.50611 0.41626C7.15089 0.41626 6.81021 0.557371 6.55902 0.808555L0.392863 6.97472C0.268326 7.099 0.169523 7.24662 0.10211 7.40914C0.0346968 7.57165 -1.93889e-06 7.74586 -1.95427e-06 7.92181C-1.96966e-06 8.09775 0.0346968 8.27196 0.10211 8.43448C0.169523 8.59699 0.268326 8.74461 0.392863 8.8689L6.55902 15.0351C7.06951 15.5455 7.92928 15.5455 8.4532 15.0216Z" fill="#292929"/>
</svg>
